<svg width="64" height="64" viewBox="0 0 64 64" fill="none" xmlns="http://www.w3.org/2000/svg">
<path fill-rule="evenodd" clip-rule="evenodd" d="M26 39H38V40C38 40.5523 38.4477 41 39 41C39.5523 41 40 40.5523 40 40V38.7811C40.6095 38.5059 41.0085 37.9693 41.25 37.16C41.48 36.38 41.72 35.38 41.84 34.81C41.95 34.29 42 33.92 42 33.57C42 32.8 41.79 32.11 41.28 31.23L38.18 25.53C37.66 24.54 36.74 24 35.57 24H28.43C27.26 24 26.34 24.54 25.82 25.52L22.73 31.21C22.21 32.11 22 32.8 22 33.57C22 33.92 22.05 34.29 22.16 34.8C22.28 35.37 22.52 36.37 22.75 37.15C22.9879 37.9603 23.4037 38.4935 24 38.7709V40C24 40.5523 24.4477 41 25 41C25.5523 41 26 40.5523 26 40V39ZM38.84 37H25.16C24.93 37 24.74 36.85 24.68 36.63C24.48 35.88 24.23 34.92 24.11 34.38C24.0881 34.2816 24.07 34.1915 24.0552 34.1083L26.7976 34.7448C27.3356 34.8697 27.8729 34.5348 27.9978 33.9968C28.1227 33.4589 27.7878 32.9215 27.2498 32.7966L24.4975 32.1578L25.1259 31H38.8812L39.5137 32.1616L36.7458 32.8017C36.2077 32.9261 35.8724 33.4632 35.9968 34.0013C36.1212 34.5394 36.6583 34.8747 37.1964 34.7503L39.9349 34.117C39.9194 34.1995 39.9011 34.2899 39.88 34.39C39.76 34.93 39.51 35.89 39.31 36.64C39.26 36.85 39.06 37 38.84 37ZM37.7921 29H26.2114L27.59 26.46C27.73 26.19 27.93 26 28.43 26H35.57C36.07 26 36.27 26.19 36.42 26.48L37.7921 29Z" fill="#323942"/>
<rect x="1" y="1" width="62" height="62" rx="31" stroke="#A7E92F" stroke-width="2"/>
</svg>
