<svg width="65" height="64" viewBox="0 0 65 64" fill="none" xmlns="http://www.w3.org/2000/svg">
<path d="M33.7586 32.0567V36.0567C33.7586 36.6092 33.3086 37.0567 32.7587 37.0567C32.2087 37.0567 31.7587 36.6092 31.7587 36.0567V32.0567C31.7587 31.5042 32.2087 31.0568 32.7587 31.0568C33.3086 31.0568 33.7586 31.5042 33.7586 32.0567Z" fill="white"/>
<path d="M32.7587 29.7228C33.5204 29.7228 34.1379 29.1053 34.1379 28.3436C34.1379 27.5819 33.5204 26.9645 32.7587 26.9645C31.997 26.9645 31.3795 27.5819 31.3795 28.3436C31.3795 29.1053 31.997 29.7228 32.7587 29.7228Z" fill="white"/>
<path fill-rule="evenodd" clip-rule="evenodd" d="M42.7499 32C42.7499 26.4765 38.275 22.0005 32.75 22C27.225 22.0005 22.75 26.4765 22.75 32C22.75 37.5235 27.225 41.9995 32.75 42C38.275 41.9995 42.7499 37.5235 42.7499 32ZM40.7499 32C40.7499 34.2125 39.855 36.206 38.405 37.657C36.955 39.106 34.96 39.9995 32.75 40C30.54 39.9995 28.545 39.106 27.095 37.657C25.645 36.206 24.75 34.2125 24.75 32C24.75 29.7875 25.645 27.794 27.095 26.343C28.545 24.894 30.54 24.0005 32.75 24C34.96 24.0005 36.955 24.894 38.405 26.343C39.855 27.794 40.7499 29.7875 40.7499 32Z" fill="white"/>
<rect x="1.75" y="1" width="62" height="62" rx="31" stroke="#A7E92F" stroke-width="2"/>
</svg>
