<svg width="1500" height="905" viewBox="0 0 1500 905" fill="none" xmlns="http://www.w3.org/2000/svg">
<path d="M870.36 675.68L828.28 847.54" stroke="black" stroke-width="3" stroke-miterlimit="22.9256" stroke-linecap="round" stroke-linejoin="round"/>
<path d="M949.13 675.68L991.21 847.54" stroke="black" stroke-width="3" stroke-miterlimit="22.9256" stroke-linecap="round" stroke-linejoin="round"/>
<path d="M866.69 693.94L972.1 769.61" stroke="black" stroke-width="3" stroke-miterlimit="22.9256" stroke-linecap="round" stroke-linejoin="round"/>
<path d="M953.03 693.02L847.63 768.69" stroke="black" stroke-width="3" stroke-miterlimit="22.9256" stroke-linecap="round" stroke-linejoin="round"/>
<path d="M979.71 675.68H836.37C831.9 675.68 828.28 672.06 828.28 667.59C828.28 663.12 831.9 659.5 836.37 659.5H979.71C984.18 659.5 987.8 663.12 987.8 667.59C987.81 672.05 984.19 675.68 979.71 675.68Z" fill="#F4F4F4" stroke="black" stroke-width="3" stroke-miterlimit="10" stroke-linecap="round" stroke-linejoin="round"/>
<path d="M1170.18 815.63L1225.24 811.11L1228.75 847.53H1121.9C1121.9 847.53 1120.19 842.17 1127.11 835.95C1134.04 829.75 1167.36 825.51 1170.18 815.63Z" fill="#C8C8C8"/>
<path d="M1026.47 809.14C1026.47 809.14 1012.35 820.43 990.05 825.52C967.74 830.6 957.86 847.54 957.86 847.54H1073.08L1078.93 817.61L1026.47 809.14Z" fill="#C8C8C8"/>
<path d="M753.78 497.65C421.39 335.98 885.39 85.75 999.99 184.22C1058.65 234.62 895.89 341.11 771.28 347.05C566.16 356.83 472.42 189.67 626.72 85.87C694.64 40.18 804.82 47.35 856.91 70.5" stroke="#A3E62F" stroke-width="40" stroke-miterlimit="10"/>
<path d="M541.95 270.97L598.53 293.84C598.53 293.84 597.57 359.63 593.34 365.84C589.1 372.05 549.53 364.03 535.89 351.86C522.25 339.7 541.95 270.97 541.95 270.97Z" fill="#F4F4F4"/>
<path d="M836.31 433.92C806.15 410.58 842.07 390.7 845.01 383.61C849.94 371.72 836.6 351.13 838.05 337.22C839.5 323.3 857.73 295.56 886.47 289.38C909.38 284.45 937.21 293.73 944.75 316.64C952.29 339.55 950.55 349.41 964.47 357.53C978.39 365.65 1017.82 386.82 995.21 411.17" fill="#F4F4F4"/>
<path d="M655.64 812.89C655.64 812.89 659.13 845.09 663.83 847.53C668.54 849.98 760.77 847.53 760.77 847.53C760.77 847.53 764.91 840 757.57 831.53C750.23 823.06 706.04 808.79 706.04 808.79L655.64 812.89Z" fill="black"/>
<path d="M617.41 607.54H663.36C663.36 607.54 675.62 608.87 677.34 628.15C680.3 661.47 583.27 812.65 572.92 816.54C562.57 820.43 515.13 811.96 515.13 806.88C515.13 801.8 572.92 662.32 572.92 662.32L617.41 607.54Z" fill="#C8C8C8"/>
<path d="M416.78 608.29C416.78 608.29 405.73 652.4 453.29 663.44C500.85 674.48 582.33 666.26 582.33 666.26C582.33 666.26 585.72 692.24 607.93 735.15C630.14 778.07 638.8 811.2 662.52 814.96C686.24 818.72 703.93 816.09 710.33 802.91C716.73 789.73 671.55 656.93 659.98 634.63C648.16 611.86 617.42 607.52 617.42 607.52L416.78 608.29Z" fill="#C8C8C8"/>
<path d="M598.53 303.72C598.53 303.72 597.34 343.61 596.05 352.23C594.76 360.85 598.86 385.65 573.03 385.45C547.2 385.25 527.69 365.17 528.3 342.39C506.09 335.9 508.73 315.46 515.83 310.77C522.94 306.08 532.03 319.14 532.03 319.14" stroke="black" stroke-width="3" stroke-miterlimit="10" stroke-linecap="round" stroke-linejoin="round"/>
<path d="M596.05 352.23C596.05 352.23 591.44 344.08 571.78 339.11C554.64 334.78 543.89 341.32 538.85 340.1C533.81 338.88 533.29 332.27 533.64 329.29C534.08 325.44 539.69 310.13 539.69 310.13L530.62 318.41C530.62 318.41 519.65 351.01 539.62 371.22C559.59 391.43 584.62 388.67 590.93 378.29C597.24 367.91 596.05 352.23 596.05 352.23ZM567.99 360.05C560.89 357.06 553.84 347.19 555.37 344.74C556.91 342.29 582.3 349.37 582.63 352.09C583.14 356.23 575.08 363.04 567.99 360.05Z" fill="black"/>
<path d="M528.31 342.39L519.47 379.97" stroke="black" stroke-width="3" stroke-miterlimit="10" stroke-linecap="round" stroke-linejoin="round"/>
<path d="M594.61 315.3C594.61 315.3 590.48 309.49 583.65 311.44C578.16 313.01 576.2 320.09 582.14 326.12C588.35 332.43 583.27 338.07 578.09 338.07" stroke="black" stroke-width="3" stroke-miterlimit="10" stroke-linecap="round" stroke-linejoin="round"/>
<path d="M568.91 308.38C568.91 308.38 564.74 304.59 558.34 305.7C552.92 306.64 550.57 309.31 550.57 309.31" stroke="black" stroke-width="3" stroke-miterlimit="10" stroke-linecap="round" stroke-linejoin="round"/>
<path d="M563.865 317.461C563.998 315.306 562.573 313.464 560.682 313.348C558.791 313.231 557.151 314.884 557.018 317.04C556.886 319.195 558.311 321.037 560.202 321.153C562.093 321.269 563.733 319.616 563.865 317.461Z" fill="black"/>
<path d="M590.766 322.779C590.899 320.624 589.474 318.783 587.583 318.666C585.692 318.55 584.052 320.203 583.919 322.358C583.787 324.513 585.212 326.355 587.103 326.471C588.993 326.588 590.634 324.935 590.766 322.779Z" fill="black"/>
<path d="M583.72 268.98C600.35 277.58 608.16 290.16 601.6 299.21C597.75 304.52 586.06 303.09 578.07 300.09C570.08 297.09 554.89 285.76 548.94 288.23C542.98 290.7 543.08 314.02 532.04 319.14C532.04 319.14 524.98 310.15 518.54 309.23C518.54 309.23 515.67 291.26 523.1 276.68C530.07 263.01 554.57 253.91 583.72 268.98Z" fill="black"/>
<path d="M413.67 586.08C413.67 586.08 388.07 582.32 387.32 558.6C386.57 534.88 420.45 410.27 443.41 393.71C466.37 377.15 517.2 379.98 517.2 379.98C517.2 379.98 523.7 398.7 547.32 402C568.93 405.01 571.17 392.59 571.17 392.59C571.17 392.59 605.67 408.32 621.11 433.02C636.55 457.72 641.82 531.89 641.82 531.89L675.7 548.83L655.37 586.1H413.67V586.08Z" fill="#A7E92F"/>
<path d="M415.74 368.67V594.83" stroke="white" stroke-width="3" stroke-miterlimit="10"/>
<path d="M468.82 368.67V594.83" stroke="white" stroke-width="3" stroke-miterlimit="10"/>
<path d="M521.9 368.67V594.83" stroke="white" stroke-width="3" stroke-miterlimit="10"/>
<path d="M574.98 368.67V594.83" stroke="white" stroke-width="3" stroke-miterlimit="10"/>
<path d="M628.07 368.67V594.83" stroke="white" stroke-width="3" stroke-miterlimit="10"/>
<path d="M420.25 412.71H651.78" stroke="white" stroke-width="3" stroke-miterlimit="10"/>
<path d="M398.8 462.4H659.69" stroke="white" stroke-width="3" stroke-miterlimit="10"/>
<path d="M366.61 512.1H659.69" stroke="white" stroke-width="3" stroke-miterlimit="10"/>
<path d="M366.61 561.79H701.48" stroke="white" stroke-width="3" stroke-miterlimit="10"/>
<path d="M529.81 586.08C529.81 586.08 529.25 571.26 538.28 564.48C547.32 557.7 579.16 558.49 588.03 560.22C612.68 565.04 621.01 586.08 621.01 586.08H529.81Z" fill="#F4F4F4"/>
<path d="M889.11 459.02H712.77C708.17 459.02 703.94 461.54 701.76 465.59L642.61 575.07H550.7C544.62 575.07 539.69 580 539.69 586.08H636.66H646.98H830.91L894.59 468.22C896.84 464.07 893.83 459.02 889.11 459.02Z" fill="#C8C8C8"/>
<path d="M650.7 578.17L709.85 468.69C712.04 464.64 716.26 462.12 720.86 462.12H897.2C901.92 462.12 904.93 467.17 902.69 471.32L842.66 578.16" stroke="black" stroke-width="3" stroke-miterlimit="22.9256" stroke-linecap="round" stroke-linejoin="round"/>
<path d="M781.343 536.083C789.42 530.007 793.183 521.379 789.747 516.811C786.311 512.242 776.977 513.464 768.9 519.539C760.823 525.614 757.06 534.243 760.496 538.811C763.932 543.379 773.265 542.158 781.343 536.083Z" stroke="white" stroke-width="3" stroke-miterlimit="10"/>
<path d="M469.17 511.25C469.17 511.25 461.69 558.4 442.56 555.3C432.11 553.61 437.01 534.88 481.43 547.3C525.85 559.72 534.51 563.49 534.51 563.49" stroke="black" stroke-width="3" stroke-miterlimit="10" stroke-linecap="round" stroke-linejoin="round"/>
<path d="M604.63 468.62L591.36 557.84" stroke="black" stroke-width="3" stroke-miterlimit="10" stroke-linecap="round" stroke-linejoin="round"/>
<path d="M528.82 582.83C534.51 551.91 578.66 557.05 593.34 560.48C609.66 564.29 614.7 575.07 614.7 575.07" stroke="black" stroke-width="3" stroke-miterlimit="10" stroke-linecap="round" stroke-linejoin="round"/>
<path d="M563.5 569.51C563.5 569.51 577.24 570.45 582.32 573.65" stroke="black" stroke-width="3" stroke-miterlimit="10" stroke-linecap="round" stroke-linejoin="round"/>
<path d="M576.3 564.43C576.3 564.43 597.95 567.44 604.63 573.65" stroke="black" stroke-width="3" stroke-miterlimit="10" stroke-linecap="round" stroke-linejoin="round"/>
<path d="M112.49 847.54H1389.85" stroke="black" stroke-width="3" stroke-miterlimit="10" stroke-linecap="round" stroke-linejoin="round"/>
<path d="M461.48 675.68L419.39 847.54" stroke="black" stroke-width="3" stroke-miterlimit="22.9256" stroke-linecap="round" stroke-linejoin="round"/>
<path d="M540.24 675.68L582.33 847.54" stroke="black" stroke-width="3" stroke-miterlimit="22.9256" stroke-linecap="round" stroke-linejoin="round"/>
<path d="M457.81 693.94L563.21 769.61" stroke="black" stroke-width="3" stroke-miterlimit="22.9256" stroke-linecap="round" stroke-linejoin="round"/>
<path d="M544.15 693.02L438.74 768.69" stroke="black" stroke-width="3" stroke-miterlimit="22.9256" stroke-linecap="round" stroke-linejoin="round"/>
<path d="M570.83 675.68H427.49C423.02 675.68 419.4 672.06 419.4 667.59C419.4 663.12 423.02 659.5 427.49 659.5H570.83C575.3 659.5 578.92 663.12 578.92 667.59C578.92 672.05 575.3 675.68 570.83 675.68Z" fill="#F4F4F4" stroke="black" stroke-width="3" stroke-miterlimit="10" stroke-linecap="round" stroke-linejoin="round"/>
<path d="M629.26 453.03C629.26 453.03 641.62 521.32 641.81 531.86C642 542.4 618.83 544.83 617.53 539.58C616 533.42 629.99 528.96 659.43 540.67" stroke="black" stroke-width="3" stroke-miterlimit="10" stroke-linecap="round" stroke-linejoin="round"/>
<path d="M322.01 293.97C322.01 293.97 333.89 286.77 325.95 265.61C320.02 249.8 299.41 241.05 272.23 250.65C251.38 258.02 238.27 271.2 240.23 292.46C242.19 313.73 270.9 307.96 268.9 296.68C266.9 285.4 240.27 293.47 227.31 315.02C207.36 348.2 221.18 374.85 238.62 369.54C256.06 364.24 251 349.36 242.03 351.63C233.06 353.9 226.03 379.99 231.86 394.61C237.69 409.23 244.85 410.22 244.85 410.22" stroke="black" stroke-width="3" stroke-miterlimit="22.9256" stroke-linecap="round" stroke-linejoin="round"/>
<path d="M327.78 368.4C327.78 368.4 299.76 348.29 306.71 319.45C314.52 287.03 345.97 277.86 369.39 288.04C397.84 300.41 396.93 330.13 396.93 330.13C395.64 338.35 389.71 342.74 389.42 348.61C389.05 356.01 397.28 360.84 394.96 365.69C393.68 368.36 387.88 369.31 387.88 369.31C387.88 369.31 384.16 391.46 370.08 395.22C362.26 397.31 352.22 390.97 344.82 378.76" stroke="black" stroke-width="3" stroke-miterlimit="22.9256" stroke-linecap="round" stroke-linejoin="round"/>
<path d="M393.72 313.45C384.07 335.27 358.34 335.33 354.32 326.17C350.3 317.01 361.45 316.11 363.9 328.17C366.35 340.23 350.2 349.3 350.2 349.3C350.2 349.3 352.09 330.99 339.78 332.48C327.47 333.97 324.75 354.11 340.01 361.62" stroke="black" stroke-width="3" stroke-miterlimit="22.9256" stroke-linecap="round" stroke-linejoin="round"/>
<path d="M333.22 361.81C333.22 361.81 327.59 374.1 317.91 382.78C317.91 382.78 327.69 415.34 344.9 411.97L356.33 391.7" stroke="black" stroke-width="3" stroke-miterlimit="22.9256" stroke-linecap="round" stroke-linejoin="round"/>
<path d="M390.03 333.7C390.03 333.7 385.37 330.99 374.72 335.98" stroke="black" stroke-width="3" stroke-miterlimit="22.9256" stroke-linecap="round" stroke-linejoin="round"/>
<path d="M382.711 347.756C383.201 345.96 382.53 344.214 381.214 343.856C379.898 343.497 378.434 344.662 377.945 346.458C377.456 348.254 378.127 350 379.443 350.358C380.759 350.717 382.222 349.552 382.711 347.756Z" fill="black"/>
<path d="M373 368.26C373 368.26 374.7 375.55 380.1 377.19" stroke="black" stroke-width="3" stroke-miterlimit="22.9256" stroke-linecap="round" stroke-linejoin="round"/>
<path d="M315.77 387.57C314.82 384.57 311.79 382.73 308.69 383.22C297.88 384.93 273.99 390.42 257.62 406.79C235.88 428.53 193.06 513.43 197.57 542.79C202.09 572.15 261.38 579.61 286.98 580.72C312.58 581.83 315.03 559.73 323.69 546.18C332.35 532.63 344.4 481.05 346.65 468.63C348.44 458.79 345.57 431.35 344.29 420.34C343.99 417.76 342.16 415.64 339.66 414.91C333.53 413.1 321.95 407.15 315.77 387.57Z" fill="black"/>
<path d="M513.7 145.6H391.61C380.64 145.6 370.51 151.45 365.02 160.95L335.09 212.79C329.99 221.62 336.36 232.65 346.56 232.65H425.79L424.69 247.99C424.51 250.55 427.39 252.17 429.48 250.67L454.53 232.65H468.64C479.61 232.65 489.74 226.8 495.23 217.3L525.16 165.46C530.27 156.63 523.9 145.6 513.7 145.6Z" fill="#A7E92F"/>
<path d="M1228.53 157.72H1109.46C1098.76 157.72 1088.88 163.43 1083.53 172.69L1054.34 223.24C1049.37 231.85 1055.58 242.61 1065.52 242.61H1142.79L1141.72 257.57C1141.54 260.07 1144.36 261.64 1146.39 260.18L1170.82 242.61H1184.59C1195.29 242.61 1205.17 236.9 1210.52 227.64L1239.71 177.09C1244.68 168.48 1238.47 157.72 1228.53 157.72Z" fill="#A7E92F"/>
<path d="M198.33 559.02C198.33 559.02 157.11 618.83 194.94 653.28C232.78 687.73 359.27 672.48 359.27 672.48C359.27 672.48 407.32 806.48 424.21 808.8C443.13 811.4 467.13 797.28 467.13 797.28C467.13 797.28 441.15 655.35 418.89 624.23C400.75 598.87 298.28 586.08 298.28 586.08L286.99 580.72L198.33 559.02Z" fill="#A7E92F"/>
<path d="M331.6 665.14C331.6 665.14 274.28 778.65 280.49 797.28C283.64 806.73 315.22 814.22 315.22 814.22L390.33 709.75L373.95 656.1L331.6 665.14Z" fill="#A7E92F"/>
<path d="M692.09 70.98H552.09C539.51 70.98 527.89 77.69 521.6 88.58L487.28 148.02C481.44 158.14 488.74 170.8 500.43 170.8H640.43C653.01 170.8 664.63 164.09 670.92 153.2L705.24 93.76C711.09 83.63 703.78 70.98 692.09 70.98Z" fill="#F4F4F4" stroke="black" stroke-width="3" stroke-miterlimit="22.9256" stroke-linecap="round" stroke-linejoin="round"/>
<path d="M538.29 98.9501H680.28" stroke="black" stroke-width="3" stroke-miterlimit="22.9256" stroke-linecap="round" stroke-linejoin="round"/>
<path d="M610.92 122.62H667.63" stroke="black" stroke-width="3" stroke-miterlimit="22.9256" stroke-linecap="round" stroke-linejoin="round"/>
<path d="M525.63 122.62H575.54" stroke="black" stroke-width="3" stroke-miterlimit="22.9256" stroke-linecap="round" stroke-linejoin="round"/>
<path d="M407.475 197.564C415.177 191.771 418.764 183.543 415.488 179.186C412.211 174.83 403.311 175.994 395.609 181.787C387.907 187.58 384.319 195.808 387.596 200.165C390.872 204.521 399.772 203.357 407.475 197.564Z" stroke="black" stroke-width="3" stroke-miterlimit="22.9256" stroke-linecap="round" stroke-linejoin="round"/>
<path d="M465.247 197.565C472.949 191.772 476.537 183.544 473.26 179.188C469.983 174.831 461.083 175.996 453.381 181.789C445.679 187.582 442.091 195.81 445.368 200.166C448.644 204.523 457.545 203.358 465.247 197.565Z" stroke="black" stroke-width="3" stroke-miterlimit="22.9256" stroke-linecap="round" stroke-linejoin="round"/>
<path d="M1101.85 187.51H1203.76" stroke="black" stroke-width="3" stroke-miterlimit="22.9256" stroke-linecap="round" stroke-linejoin="round"/>
<path d="M1089.05 209.23H1190.97" stroke="black" stroke-width="3" stroke-miterlimit="22.9256" stroke-linecap="round" stroke-linejoin="round"/>
<path d="M430.14 811.39C430.14 811.39 429.86 838.21 438.05 845.27" stroke="black" stroke-width="3" stroke-miterlimit="10" stroke-linecap="round" stroke-linejoin="round"/>
<path d="M487.17 814.22C487.17 814.22 504.77 824.08 516.63 829.44C528.49 834.8 528.96 845.27 528.96 845.27" stroke="black" stroke-width="3" stroke-miterlimit="10" stroke-linecap="round" stroke-linejoin="round"/>
<path d="M618.09 839.07C615.08 832.11 572.91 816.54 572.91 816.54L519.04 809.78C519.04 809.78 517.02 815.96 514.92 823.3C518.51 824.81 527.63 828.91 531.78 833.28C535.1 836.78 536.02 844.14 536.26 849.06C568.11 849.45 618.09 847.54 618.09 847.54C618.09 847.54 621.1 846.03 618.09 839.07Z" fill="black"/>
<path d="M277.95 803.11C277.95 803.11 259.88 834.55 260.82 840.19" stroke="black" stroke-width="3" stroke-miterlimit="10" stroke-linecap="round" stroke-linejoin="round"/>
<path d="M314.65 816.54C314.65 816.54 315.59 824.57 326.13 828.34C336.67 832.1 352.67 837.38 348.34 847.54" stroke="black" stroke-width="3" stroke-miterlimit="10" stroke-linecap="round" stroke-linejoin="round"/>
<path d="M344.02 442.08L380.36 514.18L429.85 482.93L443.35 509.01C443.35 509.01 397.94 579.59 378.18 582.83C358.42 586.08 320.02 529.89 320.02 529.89L344.02 442.08Z" fill="black"/>
<path d="M879.08 776.95C879.08 776.95 894.89 797.28 896.02 803.49C897.15 809.7 864.11 845.28 864.11 845.28H813.57C813.57 845.28 813.01 838.22 818.65 833.42C824.29 828.62 837.29 823.26 837.29 823.26L840.11 799.82L879.08 776.95Z" fill="#A7E92F"/>
<path d="M771.78 813.65C771.78 813.65 767.54 847.53 764.16 847.53C760.77 847.53 670.14 847.53 670.14 847.53C670.14 847.53 671.08 840 675.88 835.48C680.68 830.96 708.35 820.24 711.83 818.73C720.77 814.84 724.35 808.79 724.35 808.79L771.78 813.65Z" fill="#A7E92F"/>
<path d="M724.35 808.8L800.3 832.01L854.8 664.39C854.8 664.39 963.37 666.34 977.15 662.95C1005.01 656.11 1002.49 607.54 1002.49 607.54H807.83C807.83 607.54 792.02 615.07 784.87 635.02C777.71 654.97 724.35 808.8 724.35 808.8Z" fill="black"/>
<path d="M766.01 607.54C766.01 607.54 746.43 612.89 744.12 634.36C740.83 664.95 813.56 822.12 813.56 822.12L879.08 776.94L813.56 651.01V607.53H766.01V607.54Z" fill="black"/>
<path d="M824.58 455.63C824.58 455.63 837.85 434.74 846.04 429.37C854.23 424 878.79 418.92 878.79 418.92" stroke="black" stroke-width="3" stroke-miterlimit="22.9256" stroke-linecap="round" stroke-linejoin="round"/>
<path d="M952.77 411.3C952.77 411.3 963.09 400.32 979.78 408.11C1001.05 418.04 1011.78 481.61 1011.78 481.61" stroke="black" stroke-width="3" stroke-miterlimit="22.9256" stroke-linecap="round" stroke-linejoin="round"/>
<path d="M848.44 561.51L883.17 557.28" stroke="black" stroke-width="3" stroke-miterlimit="22.9256" stroke-linecap="round" stroke-linejoin="round"/>
<path d="M850.14 582.55L861.43 573.79" stroke="black" stroke-width="3" stroke-miterlimit="22.9256" stroke-linecap="round" stroke-linejoin="round"/>
<path d="M865.81 583.11L874.28 578.17" stroke="black" stroke-width="3" stroke-miterlimit="22.9256" stroke-linecap="round" stroke-linejoin="round"/>
<path d="M897.99 401.42C885.19 406.88 868.63 406.13 858.65 392.57C848.67 379.01 853.71 343.06 853.71 343.06C853.71 343.06 858.7 323.2 868.96 317.41" stroke="black" stroke-width="3" stroke-miterlimit="22.9256" stroke-linecap="round" stroke-linejoin="round"/>
<path d="M880.87 404.59L878.8 418.92C878.8 418.92 877.95 442.06 905.9 428.67" stroke="black" stroke-width="3" stroke-miterlimit="22.9256" stroke-linecap="round" stroke-linejoin="round"/>
<path d="M872.3 304.29C872.3 304.29 864.78 313.4 872.3 325.18C879.82 336.97 901.16 338.13 909.04 346.64C913.12 351.04 916.35 361.89 912.96 371.49C909.57 381.09 895.64 392.14 906.28 403.7C916.92 415.26 930.47 408.48 926.52 401.42C922.57 394.36 892.45 427.2 912.97 440.38C928.78 450.54 952.78 411.3 952.78 411.3" stroke="black" stroke-width="3" stroke-miterlimit="22.9256" stroke-linecap="round" stroke-linejoin="round"/>
<path d="M836.31 433.92C806.15 410.58 842.07 390.7 845.01 383.61C849.94 371.72 836.6 351.13 838.05 337.22C839.5 323.3 857.73 295.56 886.47 289.38C909.38 284.45 937.21 293.73 944.75 316.64C952.29 339.55 950.55 349.41 964.47 357.53C978.39 365.65 1017.82 386.82 995.21 411.17" stroke="black" stroke-width="3" stroke-miterlimit="22.9256" stroke-linecap="round" stroke-linejoin="round"/>
<path d="M856.91 342.46C856.91 342.46 862.27 336.9 869.9 340.43C877.52 343.96 876.54 353.42 873.34 358.78C871.12 362.51 865.18 367.39 875.22 373.17" stroke="black" stroke-width="3" stroke-miterlimit="22.9256" stroke-linecap="round" stroke-linejoin="round"/>
<path d="M884.16 339.5C884.16 339.5 885.83 336.25 895.73 339.14" stroke="black" stroke-width="3" stroke-miterlimit="22.9256" stroke-linecap="round" stroke-linejoin="round"/>
<path d="M871.66 382.16C871.66 382.16 875.73 385.24 881.7 383.15C888.22 380.88 889.11 377.14 889.11 377.14" stroke="black" stroke-width="3" stroke-miterlimit="22.9256" stroke-linecap="round" stroke-linejoin="round"/>
<path d="M892.34 356.42C893.98 356.42 895.31 354.853 895.31 352.92C895.31 350.987 893.98 349.42 892.34 349.42C890.7 349.42 889.37 350.987 889.37 352.92C889.37 354.853 890.7 356.42 892.34 356.42Z" fill="black"/>
<path d="M865.25 357.08C866.89 357.08 868.22 355.513 868.22 353.58C868.22 351.647 866.89 350.08 865.25 350.08C863.61 350.08 862.28 351.647 862.28 353.58C862.28 355.513 863.61 357.08 865.25 357.08Z" fill="black"/>
<path d="M958.04 459.02C958.04 459.02 955.03 527.81 965.57 542.26C976.11 556.71 986.28 546.55 971.97 536.76C957.66 526.97 885.38 554.08 885.38 554.08C885.38 554.08 901.57 562.83 897.99 582.55" stroke="black" stroke-width="3" stroke-miterlimit="22.9256" stroke-linecap="round" stroke-linejoin="round"/>
<path d="M1011.78 584.57C1011.78 584.57 1020.16 582.69 1023.17 557.28" stroke="black" stroke-width="3" stroke-miterlimit="22.9256" stroke-linecap="round" stroke-linejoin="round"/>
<path d="M1331.5 604.52C1331.5 604.52 1344.68 637.65 1327.74 647.06C1310.8 656.47 1194.09 636.52 1183.55 656.1C1174 673.83 1212.54 804.05 1212.54 804.05" stroke="#A7E92F" stroke-width="6" stroke-miterlimit="10" stroke-linejoin="round"/>
<path d="M1300.25 616.57C1300.25 616.57 1180.16 614.31 1161.33 635.39C1142.51 656.47 1194.84 804.05 1194.84 804.05" stroke="#A7E92F" stroke-width="6" stroke-miterlimit="10" stroke-linejoin="round"/>
<path d="M1195.22 610.55C1195.22 610.55 1140.26 610.55 1128.58 635.02C1116.91 659.49 1178.65 804.05 1178.65 804.05" stroke="#A7E92F" stroke-width="6" stroke-miterlimit="10" stroke-linejoin="round"/>
<path d="M1114.84 700.9L1068.18 804.05" stroke="#A7E92F" stroke-width="6" stroke-miterlimit="10" stroke-linejoin="round"/>
<path d="M1103.02 662.88L1043.12 804.05" stroke="#A7E92F" stroke-width="6" stroke-miterlimit="10" stroke-linejoin="round"/>
<path d="M1348.91 603.02C1348.91 603.02 1359.36 645.94 1340.16 658.93C1320.96 671.92 1195.22 663.73 1195.22 663.73L1224.11 804.06" stroke="black" stroke-width="3" stroke-miterlimit="22.9256" stroke-linecap="round" stroke-linejoin="round"/>
<path d="M1131.78 610.55C1131.78 610.55 1108.06 616.29 1106.09 640.01C1104.11 663.73 1167.36 810.83 1167.36 810.83" stroke="black" stroke-width="3" stroke-miterlimit="22.9256" stroke-linecap="round" stroke-linejoin="round"/>
<path d="M1078.92 813.65L1127.11 727.54" stroke="black" stroke-width="3" stroke-miterlimit="22.9256" stroke-linecap="round" stroke-linejoin="round"/>
<path d="M1028.44 804.05C1028.44 804.05 1079.26 633.37 1114.84 616.5" stroke="black" stroke-width="3" stroke-miterlimit="22.9256" stroke-linecap="round" stroke-linejoin="round"/>
<path d="M1043.12 475.02L1052.16 493.09C1052.16 493.09 1055.55 511.16 1069.1 540.15C1082.65 569.14 1097.03 585.42 1127.11 583.11C1157.19 580.8 1187.31 566.5 1187.31 566.5C1187.31 566.5 1191.07 603.39 1203.5 607.54C1215.93 611.69 1333.38 612.43 1348.44 596.81C1363.5 581.19 1304.02 475.02 1288.58 455.63C1273.14 436.24 1247.83 414.69 1247.83 414.69C1247.83 414.69 1258.47 405.56 1254.14 391.07C1250.02 377.28 1229.1 374.51 1215.18 377.14C1201.25 379.78 1146.66 418.18 1141.39 427.96C1136.12 437.75 1154.57 496.48 1154.57 496.48L1140.83 514.64L1090.19 474.64L1077.3 459.02L1043.12 475.02Z" fill="#A7E92F"/>
<path d="M1152.68 468.24L1101.48 527.79L1042.42 517.18L1030.7 547.25L1051.78 563.49C1051.78 563.49 1078.55 586.13 1116.53 586.08C1154.52 586.03 1200.86 550.32 1200.86 550.32L1152.68 468.24Z" fill="#A7E92F"/>
<path d="M1178.09 607.54H348.73C342.8 607.54 338 602.74 338 596.81C338 590.88 342.8 586.08 348.73 586.08H1178.09C1184.02 586.08 1188.82 590.88 1188.82 596.81C1188.82 602.73 1184.01 607.54 1178.09 607.54Z" fill="#F4F4F4" stroke="black" stroke-width="3" stroke-miterlimit="10" stroke-linecap="round" stroke-linejoin="round"/>
<path d="M1019.62 607.54L1078.92 847.54H1061.79L1002.49 607.54H1019.62Z" fill="#F4F4F4" stroke="black" stroke-width="3" stroke-miterlimit="10" stroke-linecap="round" stroke-linejoin="round"/>
<path d="M1179.78 822.27C1179.78 822.27 1166.37 809.42 1154.51 816.48C1142.65 823.54 1166.65 837.52 1171.59 833.14C1176.53 828.76 1155.78 820.14 1141.38 824.17" stroke="black" stroke-width="3" stroke-miterlimit="22.9256" stroke-linecap="round" stroke-linejoin="round"/>
<path d="M1029.61 817.04C1029.61 817.04 1016.2 804.19 1004.34 811.25C992.48 818.31 1016.48 832.29 1021.42 827.91C1026.36 823.53 1005.61 814.91 991.21 818.94" stroke="black" stroke-width="3" stroke-miterlimit="22.9256" stroke-linecap="round" stroke-linejoin="round"/>
<path d="M344.31 803.59C344.31 803.59 325.74 803.55 322.03 816.84C318.32 830.13 345.33 823.68 345.89 817.11C346.45 810.54 325.47 818.61 317.83 831.47" stroke="black" stroke-width="3" stroke-miterlimit="22.9256" stroke-linecap="round" stroke-linejoin="round"/>
<path d="M510.27 802.6C510.27 802.6 491.7 802.56 487.99 815.85C484.28 829.14 511.29 822.69 511.85 816.12C512.41 809.55 491.43 817.62 483.79 830.48" stroke="black" stroke-width="3" stroke-miterlimit="22.9256" stroke-linecap="round" stroke-linejoin="round"/>
<path d="M1142.23 461C1142.23 461 1091.41 445.37 1088.58 457.33C1085.76 469.29 1140.25 463.82 1140.25 463.82C1140.25 463.82 1112.3 479.91 1117.66 488.95C1123.03 497.98 1142.23 461 1142.23 461Z" stroke="black" stroke-width="3" stroke-miterlimit="22.9256" stroke-linecap="round" stroke-linejoin="round"/>
<path d="M1109.34 335.21C1109.34 335.21 1096.78 316.53 1107.32 304.48C1117.86 292.43 1133.86 304.48 1128.59 312.39C1123.32 320.3 1121.29 292.13 1136.5 286.41C1158.52 278.13 1163.42 309.94 1157.21 311.07C1151 312.2 1152.08 291.03 1170.2 288.09C1200.88 283.11 1198.06 320.29 1187.89 320.1C1177.72 319.91 1191.87 301.88 1206.44 309.09C1223.56 317.56 1209.35 347.02 1199.19 345.89C1189.03 344.76 1209.24 325.28 1218.2 342.41C1234.13 372.85 1189.4 393.52 1179.24 392.67C1169.08 391.82 1165.97 383.88 1165.97 383.88C1165.97 383.88 1182.35 385.9 1184.89 370.09C1187.43 354.28 1174.73 348.2 1165.69 352.93C1156.65 357.66 1156.37 370.93 1156.37 370.93C1156.37 370.93 1140.09 365.66 1144.79 350.22C1149.5 334.78 1154.2 342.5 1148.18 351.35C1142.16 360.2 1122.77 342.88 1130.86 331.96C1138.95 321.04 1137.26 338.17 1124.08 339.87C1110.9 341.56 1110.06 328.29 1110.06 328.29" stroke="black" stroke-width="3" stroke-miterlimit="22.9256" stroke-linecap="round" stroke-linejoin="round"/>
<path d="M1109.48 337.42C1109.48 337.42 1108.14 339.83 1108.16 346.46C1108.19 353.69 1109.38 356.91 1107.24 362.74C1106.6 364.48 1095.45 366.6 1095.45 370.55C1095.45 374.5 1100.16 381.56 1100.16 381.56C1100.16 381.56 1098.61 406.08 1108.35 415.25C1118.09 424.43 1137.57 416.38 1137.57 416.38L1142.65 423.58" stroke="black" stroke-width="3" stroke-miterlimit="22.9256" stroke-linecap="round" stroke-linejoin="round"/>
<path d="M1105.41 393.04C1105.41 393.04 1113.78 395.99 1119.15 387.52" stroke="black" stroke-width="3" stroke-miterlimit="22.9256" stroke-linecap="round" stroke-linejoin="round"/>
<path d="M1112.3 344.81C1112.3 344.81 1120.63 340.29 1127.55 351.02" stroke="black" stroke-width="3" stroke-miterlimit="22.9256" stroke-linecap="round" stroke-linejoin="round"/>
<path d="M1117.88 364.39C1119.6 364.39 1120.99 362.622 1120.99 360.44C1120.99 358.258 1119.6 356.49 1117.88 356.49C1116.16 356.49 1114.77 358.258 1114.77 360.44C1114.77 362.622 1116.16 364.39 1117.88 364.39Z" fill="black"/>
<path d="M1230.9 675.68L1215.38 739.07" stroke="black" stroke-width="3" stroke-miterlimit="22.9256" stroke-linecap="round" stroke-linejoin="round"/>
<path d="M1309.66 675.68L1351.75 847.54" stroke="black" stroke-width="3" stroke-miterlimit="22.9256" stroke-linecap="round" stroke-linejoin="round"/>
<path d="M1227.23 693.94L1332.63 769.61" stroke="black" stroke-width="3" stroke-miterlimit="22.9256" stroke-linecap="round" stroke-linejoin="round"/>
<path d="M1313.57 693.02L1220.01 760.19" stroke="black" stroke-width="3" stroke-miterlimit="22.9256" stroke-linecap="round" stroke-linejoin="round"/>
<path d="M1340.25 675.68H1196.91C1192.44 675.68 1188.82 672.06 1188.82 667.59C1188.82 663.12 1192.44 659.5 1196.91 659.5H1340.25C1344.72 659.5 1348.34 663.12 1348.34 667.59C1348.35 672.05 1344.72 675.68 1340.25 675.68Z" fill="#F4F4F4" stroke="black" stroke-width="3" stroke-miterlimit="10" stroke-linecap="round" stroke-linejoin="round"/>
<path d="M217.9 675.68L175.81 847.54" stroke="black" stroke-width="3" stroke-miterlimit="22.9256" stroke-linecap="round" stroke-linejoin="round"/>
<path d="M296.66 675.68L338.74 847.54" stroke="black" stroke-width="3" stroke-miterlimit="22.9256" stroke-linecap="round" stroke-linejoin="round"/>
<path d="M214.22 693.94L319.63 769.61" stroke="black" stroke-width="3" stroke-miterlimit="22.9256" stroke-linecap="round" stroke-linejoin="round"/>
<path d="M300.56 693.02L195.16 768.69" stroke="black" stroke-width="3" stroke-miterlimit="22.9256" stroke-linecap="round" stroke-linejoin="round"/>
<path d="M327.25 675.68H183.91C179.44 675.68 175.82 672.06 175.82 667.59C175.82 663.12 179.44 659.5 183.91 659.5H327.25C331.72 659.5 335.34 663.12 335.34 667.59C335.34 672.05 331.72 675.68 327.25 675.68Z" fill="#F4F4F4" stroke="black" stroke-width="3" stroke-miterlimit="10" stroke-linecap="round" stroke-linejoin="round"/>
<path d="M517.38 607.54L458.09 847.54H475.22L534.51 607.54H517.38Z" fill="#F4F4F4" stroke="black" stroke-width="3" stroke-miterlimit="10" stroke-linecap="round" stroke-linejoin="round"/>
<path d="M582.33 675.68L615.42 750.23" stroke="black" stroke-width="3" stroke-miterlimit="22.9256" stroke-linecap="round" stroke-linejoin="round"/>
<path d="M633.56 612.26C633.56 612.26 649.63 619.75 657.34 630.3C665.05 640.85 667.83 653.08 667.83 653.08" stroke="black" stroke-width="3" stroke-miterlimit="22.9256" stroke-linecap="round" stroke-linejoin="round"/>
<path d="M433.85 612.26C433.85 612.26 430.42 625.44 439.83 633.72C449.24 642 496.3 643.13 496.3 643.13" stroke="white" stroke-width="3" stroke-miterlimit="22.9256" stroke-linecap="round" stroke-linejoin="round"/>
<path d="M534.51 644.81C534.51 644.81 571.52 653.28 596.26 647.63C621 641.98 606.64 617.62 597.99 634.92C582.32 666.26 662.13 805.18 662.13 805.18" stroke="white" stroke-width="3" stroke-miterlimit="22.9256" stroke-linecap="round" stroke-linejoin="round"/>
<path d="M586.56 709.47L563.21 748.99" stroke="white" stroke-width="3" stroke-miterlimit="22.9256" stroke-linecap="round" stroke-linejoin="round"/>
<path d="M552.96 769.61L536.58 801.51" stroke="white" stroke-width="3" stroke-miterlimit="22.9256" stroke-linecap="round" stroke-linejoin="round"/>
<path d="M764.26 693.94C764.26 693.94 786.37 623.16 800.82 612.26" stroke="white" stroke-width="3" stroke-miterlimit="22.9256" stroke-linecap="round" stroke-linejoin="round"/>
<path d="M839.01 712.95L809.39 804.05" stroke="white" stroke-width="3" stroke-miterlimit="22.9256" stroke-linecap="round" stroke-linejoin="round"/>
<path d="M342.04 672.19C342.04 672.19 368.49 667.58 369.42 659.48C370.81 647.39 357.99 657.22 359.26 672.47C360.53 687.72 377.9 720.19 377.9 720.19" stroke="black" stroke-width="3" stroke-miterlimit="22.9256" stroke-linecap="round" stroke-linejoin="round"/>
<path d="M273.43 404.24C244.59 408.82 184.86 514.24 192.72 547.62C200.58 581 305.41 578.17 356.33 555.02C352.48 547.68 356.33 527.91 356.33 527.91L274.17 511.25C274.18 511.25 344.58 392.95 273.43 404.24Z" fill="black"/>
<path d="M302.82 445.06C302.82 445.06 281.24 517.49 264.67 520.72C253.8 522.84 259.9 506.74 285.15 511.26C310.41 515.78 352.41 527.12 352.41 527.12" stroke="white" stroke-width="3" stroke-miterlimit="22.9256" stroke-linecap="round" stroke-linejoin="round"/>
<path d="M347.22 459.02C347.22 459.02 346.37 492.06 337.99 514.36" stroke="white" stroke-width="3" stroke-miterlimit="22.9256" stroke-linecap="round" stroke-linejoin="round"/>
<path d="M1062.7 525.47C1062.7 525.47 1080.63 573.75 1103.1 583.12" stroke="black" stroke-width="3" stroke-miterlimit="22.9256" stroke-linecap="round" stroke-linejoin="round"/>
<path d="M1125.57 504.57C1125.57 504.57 1155.5 536.57 1142.23 538.26C1133.83 539.33 1135.32 519.86 1154.56 496.47C1166.8 481.6 1199.79 431.72 1228.75 430.21" stroke="black" stroke-width="3" stroke-miterlimit="22.9256" stroke-linecap="round" stroke-linejoin="round"/>
<path d="M1180.51 569.44C1180.51 569.44 1234.37 535.3 1253.57 520.78" stroke="black" stroke-width="3" stroke-miterlimit="22.9256" stroke-linecap="round" stroke-linejoin="round"/>
<path d="M1223.14 550.69L1250.94 566.88L1265.24 603.02" stroke="black" stroke-width="3" stroke-miterlimit="22.9256" stroke-linecap="round" stroke-linejoin="round"/>
<path d="M223.93 577.42C223.93 577.42 204.35 619.58 223.93 633.14C243.51 646.7 366.96 630.5 387.31 639.54C407.66 648.58 433.24 791 433.24 791" stroke="black" stroke-width="3" stroke-miterlimit="22.9256" stroke-linecap="round" stroke-linejoin="round"/>
<path d="M227.69 618.55C227.69 618.55 251.97 610.64 253.95 581.56" stroke="black" stroke-width="3" stroke-miterlimit="22.9256" stroke-linecap="round" stroke-linejoin="round"/>
<path d="M1072.88 456.28C1072.88 456.28 1072.84 450.58 1073.46 442.82C1074.08 435.06 1082.12 414.55 1081.03 411.76C1077.76 403.39 1065.8 428.92 1065.8 428.92C1065.8 428.92 1053.12 390.17 1048.32 388.15C1043.52 386.13 1051.36 425.13 1051.36 425.13C1051.36 425.13 1042.13 388.33 1036.73 387.63C1031.33 386.93 1040.07 430.6 1041.44 427.89C1042.81 425.18 1029.97 393.26 1025.16 394.24C1020.35 395.22 1031.49 433.44 1031.49 433.44C1031.49 433.44 1019.66 411.65 1016.65 415.01C1013.63 418.37 1028.84 463.96 1043.87 472.82" stroke="black" stroke-width="3" stroke-miterlimit="22.9256" stroke-linecap="round" stroke-linejoin="round"/>
<path d="M1039.59 517.18C1039.59 517.18 1033.99 504.9 1032.11 502.64C1030.23 500.38 1011.85 483.58 1008.27 485.46C1004.69 487.34 1017.48 506.02 1017.48 506.02C1017.48 506.02 981.76 489.04 974.23 491.95C966.7 494.86 997.57 507.33 997.57 507.33C997.57 507.33 969.9 501.12 964.82 506.01" stroke="black" stroke-width="3" stroke-miterlimit="22.9256" stroke-linecap="round" stroke-linejoin="round"/>
<path d="M994.75 517.65C994.75 517.65 968.21 507.68 963.69 511.86C959.17 516.04 992.49 528.1 992.49 528.1C992.49 528.1 967.08 523.34 965.76 527.86C964.44 532.38 1018.04 545.37 1028.02 543.3" stroke="black" stroke-width="3" stroke-miterlimit="22.9256" stroke-linecap="round" stroke-linejoin="round"/>
<path d="M430.13 484.57C430.13 484.57 437.37 470.61 439.26 468.35C441.14 466.09 459.52 449.29 463.1 451.17C466.68 453.05 453.89 471.73 453.89 471.73C453.89 471.73 489.61 454.75 497.14 457.66C504.67 460.57 473.8 473.04 473.8 473.04C473.8 473.04 506.55 466.95 506.55 471.72C506.55 479.75 476.62 483.35 476.62 483.35C476.62 483.35 503.16 473.38 507.68 477.56C512.2 481.74 478.88 493.8 478.88 493.8C478.88 493.8 504.29 489.04 505.61 493.56C506.93 498.08 453.33 511.07 443.35 509" fill="#F4F4F4"/>
<path d="M1017.48 506.03C1017.48 506.03 1016.44 519.35 1025.48 525.47" stroke="black" stroke-width="3" stroke-miterlimit="22.9256" stroke-linecap="round" stroke-linejoin="round"/>
<path d="M431.78 482.89C431.78 482.89 437.38 470.61 439.26 468.35C441.14 466.09 459.52 449.29 463.1 451.17C466.68 453.05 453.89 471.73 453.89 471.73C453.89 471.73 489.61 454.75 497.14 457.66C504.67 460.57 473.8 473.04 473.8 473.04C473.8 473.04 501.47 466.83 506.55 471.72" stroke="black" stroke-width="3" stroke-miterlimit="22.9256" stroke-linecap="round" stroke-linejoin="round"/>
<path d="M476.62 483.36C476.62 483.36 503.16 473.39 507.68 477.57C512.2 481.75 478.88 493.81 478.88 493.81C478.88 493.81 504.29 489.05 505.61 493.57C506.93 498.09 453.33 511.08 443.35 509.01" stroke="black" stroke-width="3" stroke-miterlimit="22.9256" stroke-linecap="round" stroke-linejoin="round"/>
<path d="M453.9 471.74C453.9 471.74 454.94 485.06 445.9 491.18" stroke="black" stroke-width="3" stroke-miterlimit="22.9256" stroke-linecap="round" stroke-linejoin="round"/>
<path d="M801.29 453.09C801.29 453.09 801.43 439.43 796.91 428.41C792.39 417.4 768.26 395.08 766.79 399.16C764.59 405.27 777.14 422.69 777.14 422.69C777.14 422.69 732.39 404.59 727.07 407.25C718.77 411.4 753.14 425.7 753.14 425.7C753.14 425.7 720.32 411.44 711.99 419.35" stroke="black" stroke-width="3" stroke-miterlimit="22.9256" stroke-linecap="round" stroke-linejoin="round"/>
<path d="M749.2 433C749.2 433 714.44 415.94 713.08 425.88C712.78 428.1 725.62 433 725.62 433" stroke="black" stroke-width="3" stroke-miterlimit="22.9256" stroke-linecap="round" stroke-linejoin="round"/>
<path d="M745.67 439.82C745.67 439.82 719.13 429.51 716.45 435.73C714.68 439.83 749.2 449.85 749.2 449.85L760.64 456.91" stroke="black" stroke-width="3" stroke-miterlimit="22.9256" stroke-linecap="round" stroke-linejoin="round"/>
<path d="M760.63 440.76C760.63 440.76 776.21 440.76 785.43 443.58" stroke="black" stroke-width="3" stroke-miterlimit="22.9256" stroke-linecap="round" stroke-linejoin="round"/>
<path d="M359.13 528.34C359.13 528.34 378.75 524.95 384.82 522.41C390.89 519.87 429.73 518.34 428.73 523.54C427.32 530.88 399.65 528.34 399.65 528.34C399.65 528.34 426.76 531.78 429.27 535.16C431.95 538.78 427.61 540.34 427.61 540.34C427.61 540.34 430.06 543.92 427.61 545.99C425.16 548.06 398.06 549 398.06 549C398.06 549 419.71 553.96 419.14 557.88C418.57 561.8 356.35 555.03 356.35 555.03C356.35 555.03 349.44 530.17 359.13 528.34Z" fill="#F4F4F4"/>
<path d="M429.26 535.16C431.94 538.78 427.6 540.34 427.6 540.34C427.6 540.34 430.05 543.92 427.6 545.99C425.15 548.06 398.05 549 398.05 549C398.05 549 420.64 553.52 419.13 557.88C418.75 558.99 415.62 559.9 407.84 559.64" stroke="black" stroke-width="3" stroke-miterlimit="10" stroke-linecap="round" stroke-linejoin="round"/>
<path d="M397.1 537.7L426.56 539.96" stroke="black" stroke-width="3" stroke-miterlimit="10" stroke-linecap="round" stroke-linejoin="round"/>
<path d="M1156.35 442.08C1156.35 442.08 1217.97 431.92 1244.19 415.82C1270.42 399.73 1250.34 372.5 1224.95 376.24" stroke="black" stroke-width="3" stroke-miterlimit="22.9256" stroke-linecap="round" stroke-linejoin="round"/>
</svg>
